<svg width="37" height="37" viewBox="0 0 37 37" fill="none" xmlns="http://www.w3.org/2000/svg">
<path d="M18.5 35C27.6126 35 35 27.6126 35 18.5C35 9.3873 27.6126 2 18.5 2C9.3873 2 2 9.3873 2 18.5C2 27.6126 9.3873 35 18.5 35Z" stroke="white" stroke-width="2.5" stroke-linecap="round" stroke-linejoin="round"/>
<path d="M11.9 3.6499H13.55C10.3325 13.2859 10.3325 23.7139 13.55 33.3499H11.9" stroke="white" stroke-width="2.5" stroke-linecap="round" stroke-linejoin="round"/>
<path d="M23.45 3.6499C26.6675 13.2859 26.6675 23.7139 23.45 33.3499" stroke="white" stroke-width="2.5" stroke-linecap="round" stroke-linejoin="round"/>
<path d="M3.65002 25.1001V23.4501C13.286 26.6676 23.714 26.6676 33.35 23.4501V25.1001" stroke="white" stroke-width="2.5" stroke-linecap="round" stroke-linejoin="round"/>
<path d="M3.65002 13.5501C13.286 10.3326 23.714 10.3326 33.35 13.5501" stroke="white" stroke-width="2.5" stroke-linecap="round" stroke-linejoin="round"/>
</svg>
